<svg xmlns="http://www.w3.org/2000/svg" xmlns:xlink="http://www.w3.org/1999/xlink" width="500" zoomAndPan="magnify" viewBox="0 0 375 374.999991" height="500" preserveAspectRatio="xMidYMid meet" version="1.0"><defs><g/><clipPath id="dae54b105c"><path d="M 106 214 L 253.402344 214 L 253.402344 266 L 106 266 Z M 106 214 " clip-rule="nonzero"/></clipPath></defs><path fill="#3f5965" d="M 184.347656 278.796875 C 186.96875 278.015625 189.523438 277.121094 192.007812 276.121094 C 149.015625 284.628906 105.828125 259.152344 93.101562 216.300781 C 80.375 173.449219 102.660156 128.527344 143.328125 112.191406 C 140.699219 112.710938 138.070312 113.351562 135.449219 114.128906 C 89.980469 127.632812 64.066406 175.441406 77.566406 220.914062 C 91.070312 266.382812 138.878906 292.296875 184.347656 278.796875 " fill-opacity="1" fill-rule="nonzero"/><path fill="#289db9" d="M 77.933594 256.996094 C 80.214844 258.785156 82.554688 260.441406 84.941406 261.976562 C 51.222656 230.035156 46.753906 177.078125 75.984375 139.796875 C 105.21875 102.515625 157.710938 94.222656 196.773438 119.351562 C 194.710938 117.398438 192.550781 115.519531 190.269531 113.734375 C 150.707031 82.714844 93.492188 89.636719 62.46875 129.199219 C 31.449219 168.757812 38.375 225.976562 77.933594 256.996094 " fill-opacity="1" fill-rule="nonzero"/><g clip-path="url(#dae54b105c)"><path fill="#289db9" d="M 162.582031 252.839844 C 139.121094 246.53125 119.824219 232.464844 106.703125 214.148438 C 117.046875 236.992188 137.15625 255.195312 163.265625 262.210938 C 197.367188 271.378906 232.183594 258.902344 253.136719 233.191406 C 228.773438 253.265625 195.390625 261.65625 162.582031 252.839844 " fill-opacity="1" fill-rule="nonzero"/></g><g fill="#3f5965" fill-opacity="1"><g transform="translate(96.38609, 205.902796)"><g><path d="M 31 -12.46875 C 30.707031 -9.882812 29.820312 -7.59375 28.34375 -5.59375 C 26.875 -3.601562 24.957031 -2.070312 22.59375 -1 C 20.238281 0.0625 17.691406 0.566406 14.953125 0.515625 C 12.492188 0.460938 10.347656 -0.101562 8.515625 -1.1875 C 6.679688 -2.28125 5.238281 -3.851562 4.1875 -5.90625 C 3.132812 -7.96875 2.539062 -10.34375 2.40625 -13.03125 C 2.289062 -15.132812 2.507812 -17.75 3.0625 -20.875 C 3.625 -24.007812 4.617188 -26.789062 6.046875 -29.21875 C 7.472656 -31.65625 9.171875 -33.582031 11.140625 -35 C 13.910156 -36.976562 17.070312 -37.9375 20.625 -37.875 C 24.488281 -37.800781 27.554688 -36.601562 29.828125 -34.28125 C 32.097656 -31.96875 33.34375 -28.75 33.5625 -24.625 L 26.0625 -24.65625 C 26.0625 -27.019531 25.59375 -28.75 24.65625 -29.84375 C 23.71875 -30.9375 22.253906 -31.515625 20.265625 -31.578125 C 17.703125 -31.671875 15.59375 -30.757812 13.9375 -28.84375 C 12.289062 -26.925781 11.1875 -24.128906 10.625 -20.453125 C 10.070312 -16.878906 9.832031 -14.203125 9.90625 -12.421875 C 9.988281 -10.160156 10.488281 -8.492188 11.40625 -7.421875 C 12.332031 -6.359375 13.628906 -5.800781 15.296875 -5.75 C 17.585938 -5.664062 19.421875 -6.207031 20.796875 -7.375 C 22.171875 -8.550781 23.082031 -10.234375 23.53125 -12.421875 Z M 31 -12.46875 "/></g></g></g><g fill="#3f5965" fill-opacity="1"><g transform="translate(127.519888, 205.902796)"><g><path d="M 16.140625 0 C 15.921875 -0.695312 15.828125 -1.535156 15.859375 -2.515625 C 13.765625 -0.429688 11.40625 0.578125 8.78125 0.515625 C 6.34375 0.484375 4.320312 -0.304688 2.71875 -1.859375 C 1.125 -3.410156 0.378906 -5.320312 0.484375 -7.59375 C 0.609375 -10.625 1.878906 -12.945312 4.296875 -14.5625 C 6.710938 -16.175781 9.957031 -16.984375 14.03125 -16.984375 L 17.421875 -16.9375 L 17.78125 -18.609375 C 17.882812 -19.171875 17.910156 -19.707031 17.859375 -20.21875 C 17.773438 -21.019531 17.472656 -21.644531 16.953125 -22.09375 C 16.429688 -22.550781 15.738281 -22.789062 14.875 -22.8125 C 13.75 -22.84375 12.789062 -22.5625 12 -21.96875 C 11.21875 -21.382812 10.71875 -20.535156 10.5 -19.421875 L 3.234375 -19.390625 C 3.347656 -22.046875 4.5625 -24.195312 6.875 -25.84375 C 9.195312 -27.5 12.0625 -28.3125 15.46875 -28.28125 C 18.613281 -28.207031 21.078125 -27.269531 22.859375 -25.46875 C 24.640625 -23.664062 25.382812 -21.34375 25.09375 -18.5 L 22.96875 -5.203125 L 22.828125 -3.5625 C 22.796875 -2.351562 22.941406 -1.328125 23.265625 -0.484375 L 23.25 0 Z M 10.578125 -5.109375 C 12.660156 -5.035156 14.476562 -5.941406 16.03125 -7.828125 L 16.9375 -12.625 L 14.421875 -12.65625 C 11.753906 -12.582031 9.828125 -11.769531 8.640625 -10.21875 C 8.210938 -9.644531 7.945312 -8.953125 7.84375 -8.140625 C 7.707031 -7.210938 7.898438 -6.476562 8.421875 -5.9375 C 8.953125 -5.394531 9.671875 -5.117188 10.578125 -5.109375 Z M 10.578125 -5.109375 "/></g></g></g><g fill="#3f5965" fill-opacity="1"><g transform="translate(152.625569, 205.902796)"><g><path d="M 19.09375 -20.8125 C 18.09375 -20.976562 17.28125 -21.0625 16.65625 -21.0625 C 14.070312 -21.132812 12.023438 -20.171875 10.515625 -18.171875 L 7.3125 0 L 0.078125 0 L 4.90625 -27.765625 L 11.703125 -27.78125 L 11.03125 -24.40625 C 12.78125 -27.019531 14.9375 -28.328125 17.5 -28.328125 C 18.21875 -28.328125 19.054688 -28.207031 20.015625 -27.96875 Z M 19.09375 -20.8125 "/></g></g></g><g fill="#3f5965" fill-opacity="1"><g transform="translate(169.009715, 205.902796)"><g><path d="M 13.265625 0.515625 C 10.835938 0.492188 8.6875 -0.0976562 6.8125 -1.265625 C 4.9375 -2.441406 3.535156 -4.050781 2.609375 -6.09375 C 1.691406 -8.132812 1.335938 -10.390625 1.546875 -12.859375 L 1.609375 -13.875 C 1.867188 -16.582031 2.65625 -19.0625 3.96875 -21.3125 C 5.289062 -23.570312 6.984375 -25.3125 9.046875 -26.53125 C 11.117188 -27.757812 13.414062 -28.34375 15.9375 -28.28125 C 19.507812 -28.207031 22.210938 -26.890625 24.046875 -24.328125 C 25.890625 -21.773438 26.585938 -18.539062 26.140625 -14.625 L 25.734375 -11.46875 L 8.71875 -11.46875 C 8.65625 -9.675781 9.09375 -8.238281 10.03125 -7.15625 C 10.96875 -6.082031 12.25 -5.523438 13.875 -5.484375 C 16.507812 -5.421875 18.820312 -6.441406 20.8125 -8.546875 L 24.125 -4.4375 C 23.070312 -2.863281 21.5625 -1.632812 19.59375 -0.75 C 17.632812 0.125 15.523438 0.546875 13.265625 0.515625 Z M 15.578125 -22.296875 C 14.242188 -22.328125 13.054688 -21.90625 12.015625 -21.03125 C 10.984375 -20.164062 10.054688 -18.65625 9.234375 -16.5 L 19.1875 -16.5 L 19.34375 -17.171875 C 19.445312 -17.847656 19.457031 -18.492188 19.375 -19.109375 C 19.195312 -20.109375 18.773438 -20.882812 18.109375 -21.4375 C 17.441406 -21.988281 16.597656 -22.273438 15.578125 -22.296875 Z M 15.578125 -22.296875 "/></g></g></g><g fill="#289db9" fill-opacity="1"><g transform="translate(192.533591, 204.882335)"><g><path d="M 21.09375 -9.984375 C 21.445312 -12.015625 20.445312 -13.570312 18.09375 -14.65625 L 13.140625 -16.625 C 7.390625 -19.1875 4.660156 -22.71875 4.953125 -27.21875 C 5.066406 -29.3125 5.75 -31.160156 7 -32.765625 C 8.25 -34.367188 10.003906 -35.628906 12.265625 -36.546875 C 14.523438 -37.460938 16.960938 -37.90625 19.578125 -37.875 C 23.179688 -37.800781 26.09375 -36.722656 28.3125 -34.640625 C 30.539062 -32.566406 31.640625 -29.785156 31.609375 -26.296875 L 24.125 -26.296875 C 24.207031 -27.992188 23.832031 -29.3125 23 -30.25 C 22.164062 -31.1875 20.878906 -31.675781 19.140625 -31.71875 C 17.429688 -31.75 15.941406 -31.359375 14.671875 -30.546875 C 13.410156 -29.734375 12.660156 -28.617188 12.421875 -27.203125 C 12.097656 -25.335938 13.347656 -23.859375 16.171875 -22.765625 L 19.546875 -21.46875 L 21.5 -20.578125 C 26.539062 -18.078125 28.898438 -14.570312 28.578125 -10.0625 C 28.429688 -7.851562 27.726562 -5.945312 26.46875 -4.34375 C 25.207031 -2.75 23.492188 -1.523438 21.328125 -0.671875 C 19.171875 0.179688 16.789062 0.582031 14.1875 0.53125 C 11.539062 0.488281 9.179688 -0.0625 7.109375 -1.125 C 5.035156 -2.1875 3.460938 -3.6875 2.390625 -5.625 C 1.378906 -7.414062 0.90625 -9.46875 0.96875 -11.78125 L 8.5 -11.75 C 8.257812 -7.695312 10.25 -5.632812 14.46875 -5.5625 C 16.300781 -5.5625 17.804688 -5.960938 18.984375 -6.765625 C 20.160156 -7.578125 20.863281 -8.648438 21.09375 -9.984375 Z M 21.09375 -9.984375 "/></g></g></g><g fill="#289db9" fill-opacity="1"><g transform="translate(221.64137, 204.882335)"><g><path d="M 11.859375 -10.578125 L 19.78125 -27.765625 L 27.84375 -27.765625 L 11.59375 4.1875 C 10.4375 6.625 9.070312 8.414062 7.5 9.5625 C 5.9375 10.71875 4.128906 11.296875 2.078125 11.296875 C 1.273438 11.296875 0.113281 11.113281 -1.40625 10.75 L -0.875 5.109375 L 0.125 5.15625 C 2.488281 5.226562 4.21875 4.363281 5.3125 2.5625 L 6.90625 -0.390625 L 2.359375 -27.765625 L 9.859375 -27.765625 Z M 11.859375 -10.578125 "/></g></g></g><g fill="#289db9" fill-opacity="1"><g transform="translate(245.003117, 204.882335)"><g><path d="M 11.515625 -27.78125 L 10.90625 -24.5 C 13.125 -27.082031 15.816406 -28.34375 18.984375 -28.28125 C 21.597656 -28.226562 23.53125 -27.269531 24.78125 -25.40625 C 26.03125 -23.539062 26.484375 -20.957031 26.140625 -17.65625 L 23.21875 0 L 15.984375 0 L 18.96875 -17.734375 C 19.050781 -18.398438 19.066406 -19.003906 19.015625 -19.546875 C 18.785156 -21.296875 17.691406 -22.195312 15.734375 -22.25 C 13.828125 -22.3125 12.125 -21.429688 10.625 -19.609375 L 7.15625 0 L -0.078125 0 L 4.75 -27.765625 Z M 11.515625 -27.78125 "/></g></g></g><g fill="#289db9" fill-opacity="1"><g transform="translate(271.340485, 204.882335)"><g><path d="M 12.234375 -5.4375 C 13.566406 -5.40625 14.675781 -5.769531 15.5625 -6.53125 C 16.457031 -7.289062 17.039062 -8.300781 17.3125 -9.5625 L 24.125 -9.59375 C 24 -7.644531 23.382812 -5.890625 22.28125 -4.328125 C 21.175781 -2.773438 19.703125 -1.5625 17.859375 -0.6875 C 16.023438 0.175781 14.09375 0.582031 12.0625 0.53125 C 8.6875 0.488281 6.015625 -0.664062 4.046875 -2.9375 C 2.085938 -5.21875 1.140625 -8.25 1.203125 -12.03125 L 1.28125 -13.4375 L 1.3125 -13.734375 C 1.769531 -18.242188 3.289062 -21.816406 5.875 -24.453125 C 8.457031 -27.097656 11.648438 -28.375 15.453125 -28.28125 C 18.578125 -28.207031 21.054688 -27.179688 22.890625 -25.203125 C 24.734375 -23.234375 25.640625 -20.628906 25.609375 -17.390625 L 18.859375 -17.390625 C 18.859375 -18.878906 18.53125 -20.050781 17.875 -20.90625 C 17.226562 -21.757812 16.253906 -22.222656 14.953125 -22.296875 C 11.503906 -22.398438 9.410156 -19.878906 8.671875 -14.734375 C 8.410156 -12.867188 8.316406 -11.289062 8.390625 -10 C 8.554688 -7.007812 9.835938 -5.488281 12.234375 -5.4375 Z M 12.234375 -5.4375 "/></g></g></g><g fill="#289db9" fill-opacity="1"><g transform="translate(135.103707, 224.443989)"><g><path d="M 0.25 0 L 2.828125 -12.125 L 6.203125 -12.125 C 6.722656 -12.125 7.257812 -12.085938 7.8125 -12.015625 C 8.363281 -11.953125 8.867188 -11.8125 9.328125 -11.59375 C 9.796875 -11.382812 10.175781 -11.070312 10.46875 -10.65625 C 10.757812 -10.25 10.90625 -9.703125 10.90625 -9.015625 C 10.90625 -7.960938 10.664062 -7.128906 10.1875 -6.515625 C 9.707031 -5.898438 9.039062 -5.460938 8.1875 -5.203125 C 7.332031 -4.941406 6.335938 -4.8125 5.203125 -4.8125 L 3.015625 -4.8125 L 2 0 Z M 3.34375 -6.28125 L 5.640625 -6.28125 C 6.359375 -6.28125 6.972656 -6.359375 7.484375 -6.515625 C 8.003906 -6.671875 8.40625 -6.9375 8.6875 -7.3125 C 8.976562 -7.6875 9.125 -8.203125 9.125 -8.859375 C 9.125 -9.578125 8.875 -10.054688 8.375 -10.296875 C 7.875 -10.546875 7.207031 -10.671875 6.375 -10.671875 L 4.265625 -10.671875 Z M 3.34375 -6.28125 "/></g></g></g><g fill="#289db9" fill-opacity="1"><g transform="translate(145.933685, 224.443989)"><g><path d="M 2.796875 0.21875 C 2.015625 0.21875 1.367188 0.0078125 0.859375 -0.40625 C 0.347656 -0.832031 0.09375 -1.40625 0.09375 -2.125 C 0.09375 -2.726562 0.25 -3.226562 0.5625 -3.625 C 0.882812 -4.03125 1.300781 -4.351562 1.8125 -4.59375 C 2.332031 -4.832031 2.890625 -5.015625 3.484375 -5.140625 C 4.085938 -5.265625 4.671875 -5.359375 5.234375 -5.421875 C 5.804688 -5.484375 6.300781 -5.539062 6.71875 -5.59375 C 6.75 -5.757812 6.773438 -5.914062 6.796875 -6.0625 C 6.828125 -6.207031 6.84375 -6.34375 6.84375 -6.46875 C 6.84375 -7.425781 6.285156 -7.90625 5.171875 -7.90625 C 4.609375 -7.90625 4.132812 -7.78125 3.75 -7.53125 C 3.363281 -7.289062 3.066406 -6.953125 2.859375 -6.515625 L 1.5 -6.9375 C 1.820312 -7.613281 2.285156 -8.148438 2.890625 -8.546875 C 3.492188 -8.941406 4.226562 -9.140625 5.09375 -9.140625 C 6.144531 -9.140625 6.953125 -8.925781 7.515625 -8.5 C 8.085938 -8.082031 8.375 -7.429688 8.375 -6.546875 C 8.375 -6.335938 8.359375 -6.128906 8.328125 -5.921875 C 8.304688 -5.722656 8.253906 -5.4375 8.171875 -5.0625 C 8.085938 -4.6875 7.96875 -4.132812 7.8125 -3.40625 C 7.65625 -2.65625 7.550781 -2.003906 7.5 -1.453125 C 7.445312 -0.910156 7.414062 -0.425781 7.40625 0 L 5.96875 0 L 5.890625 -1.140625 C 5.492188 -0.691406 5.054688 -0.351562 4.578125 -0.125 C 4.097656 0.101562 3.503906 0.21875 2.796875 0.21875 Z M 3.28125 -1.03125 C 4.101562 -1.03125 4.804688 -1.304688 5.390625 -1.859375 C 5.984375 -2.410156 6.359375 -3.144531 6.515625 -4.0625 L 6.5625 -4.375 C 5.5625 -4.28125 4.703125 -4.164062 3.984375 -4.03125 C 3.273438 -3.90625 2.734375 -3.707031 2.359375 -3.4375 C 1.984375 -3.175781 1.796875 -2.785156 1.796875 -2.265625 C 1.796875 -1.859375 1.941406 -1.550781 2.234375 -1.34375 C 2.523438 -1.132812 2.875 -1.03125 3.28125 -1.03125 Z M 3.28125 -1.03125 "/></g></g></g><g fill="#289db9" fill-opacity="1"><g transform="translate(155.384971, 224.443989)"><g><path d="M 2.90625 0 C 2.195312 0 1.710938 -0.0976562 1.453125 -0.296875 C 1.191406 -0.492188 1.0625 -0.800781 1.0625 -1.21875 C 1.0625 -1.476562 1.125 -1.890625 1.25 -2.453125 L 2.390625 -7.765625 L 0.890625 -7.765625 L 1.140625 -9 L 2.65625 -9 L 3.140625 -11.25 L 4.703125 -11.25 L 4.203125 -9 L 5.9375 -9 L 5.671875 -7.765625 L 3.953125 -7.765625 L 2.90625 -2.890625 C 2.851562 -2.671875 2.8125 -2.472656 2.78125 -2.296875 C 2.75 -2.117188 2.734375 -1.984375 2.734375 -1.890625 C 2.734375 -1.691406 2.785156 -1.550781 2.890625 -1.46875 C 3.003906 -1.394531 3.210938 -1.359375 3.515625 -1.359375 L 4.3125 -1.359375 L 4.03125 0 Z M 2.90625 0 "/></g></g></g><g fill="#289db9" fill-opacity="1"><g transform="translate(161.262553, 224.443989)"><g><path d="M 4.15625 -10.71875 C 3.851562 -10.71875 3.585938 -10.828125 3.359375 -11.046875 C 3.140625 -11.273438 3.03125 -11.539062 3.03125 -11.84375 C 3.03125 -12.15625 3.140625 -12.421875 3.359375 -12.640625 C 3.585938 -12.867188 3.851562 -12.984375 4.15625 -12.984375 C 4.46875 -12.984375 4.734375 -12.867188 4.953125 -12.640625 C 5.179688 -12.421875 5.296875 -12.15625 5.296875 -11.84375 C 5.296875 -11.539062 5.179688 -11.273438 4.953125 -11.046875 C 4.734375 -10.828125 4.46875 -10.71875 4.15625 -10.71875 Z M 0.828125 0 L 2.484375 -7.765625 L 1.03125 -7.765625 L 1.28125 -9 L 4.296875 -9 L 2.390625 0 Z M 0.828125 0 "/></g></g></g><g fill="#289db9" fill-opacity="1"><g transform="translate(166.160532, 224.443989)"><g><path d="M 4.3125 0.21875 C 3.132812 0.21875 2.203125 -0.125 1.515625 -0.8125 C 0.828125 -1.5 0.484375 -2.429688 0.484375 -3.609375 C 0.484375 -4.660156 0.691406 -5.601562 1.109375 -6.4375 C 1.523438 -7.269531 2.117188 -7.925781 2.890625 -8.40625 C 3.660156 -8.894531 4.566406 -9.140625 5.609375 -9.140625 C 6.421875 -9.140625 7.09375 -8.972656 7.625 -8.640625 C 8.15625 -8.316406 8.554688 -7.875 8.828125 -7.3125 C 9.097656 -6.75 9.234375 -6.125 9.234375 -5.4375 C 9.234375 -5.007812 9.175781 -4.554688 9.0625 -4.078125 L 2.109375 -4.078125 C 2.097656 -3.992188 2.09375 -3.910156 2.09375 -3.828125 C 2.09375 -3.742188 2.09375 -3.660156 2.09375 -3.578125 C 2.09375 -2.960938 2.207031 -2.472656 2.4375 -2.109375 C 2.675781 -1.753906 2.984375 -1.5 3.359375 -1.34375 C 3.734375 -1.195312 4.113281 -1.125 4.5 -1.125 C 5.007812 -1.125 5.441406 -1.203125 5.796875 -1.359375 C 6.160156 -1.523438 6.472656 -1.742188 6.734375 -2.015625 L 8.140625 -1.578125 C 7.734375 -1.046875 7.210938 -0.613281 6.578125 -0.28125 C 5.941406 0.0507812 5.1875 0.21875 4.3125 0.21875 Z M 2.328125 -5.3125 L 7.640625 -5.3125 C 7.648438 -5.375 7.65625 -5.425781 7.65625 -5.46875 C 7.65625 -5.519531 7.65625 -5.570312 7.65625 -5.625 C 7.65625 -5.988281 7.578125 -6.335938 7.421875 -6.671875 C 7.273438 -7.015625 7.035156 -7.296875 6.703125 -7.515625 C 6.367188 -7.734375 5.929688 -7.84375 5.390625 -7.84375 C 4.941406 -7.84375 4.503906 -7.742188 4.078125 -7.546875 C 3.660156 -7.347656 3.289062 -7.0625 2.96875 -6.6875 C 2.65625 -6.3125 2.441406 -5.851562 2.328125 -5.3125 Z M 2.328125 -5.3125 "/></g></g></g><g fill="#289db9" fill-opacity="1"><g transform="translate(175.99278, 224.443989)"><g><path d="M 0.140625 0 L 2.046875 -9 L 3.203125 -9 L 3.3125 -7.75 C 3.613281 -8.132812 4.007812 -8.460938 4.5 -8.734375 C 5 -9.003906 5.648438 -9.140625 6.453125 -9.140625 C 7.210938 -9.140625 7.804688 -8.929688 8.234375 -8.515625 C 8.671875 -8.109375 8.890625 -7.476562 8.890625 -6.625 C 8.890625 -6.207031 8.832031 -5.734375 8.71875 -5.203125 L 7.59375 0 L 6.0625 0 L 7.125 -5.0625 C 7.238281 -5.59375 7.296875 -6.03125 7.296875 -6.375 C 7.296875 -6.90625 7.171875 -7.273438 6.921875 -7.484375 C 6.679688 -7.691406 6.300781 -7.796875 5.78125 -7.796875 C 5.351562 -7.796875 4.929688 -7.695312 4.515625 -7.5 C 4.109375 -7.3125 3.742188 -6.988281 3.421875 -6.53125 C 3.097656 -6.070312 2.851562 -5.445312 2.6875 -4.65625 L 1.703125 0 Z M 0.140625 0 "/></g></g></g><g fill="#289db9" fill-opacity="1"><g transform="translate(185.970151, 224.443989)"><g><path d="M 2.90625 0 C 2.195312 0 1.710938 -0.0976562 1.453125 -0.296875 C 1.191406 -0.492188 1.0625 -0.800781 1.0625 -1.21875 C 1.0625 -1.476562 1.125 -1.890625 1.25 -2.453125 L 2.390625 -7.765625 L 0.890625 -7.765625 L 1.140625 -9 L 2.65625 -9 L 3.140625 -11.25 L 4.703125 -11.25 L 4.203125 -9 L 5.9375 -9 L 5.671875 -7.765625 L 3.953125 -7.765625 L 2.90625 -2.890625 C 2.851562 -2.671875 2.8125 -2.472656 2.78125 -2.296875 C 2.75 -2.117188 2.734375 -1.984375 2.734375 -1.890625 C 2.734375 -1.691406 2.785156 -1.550781 2.890625 -1.46875 C 3.003906 -1.394531 3.210938 -1.359375 3.515625 -1.359375 L 4.3125 -1.359375 L 4.03125 0 Z M 2.90625 0 "/></g></g></g></svg>